<svg xmlns="http://www.w3.org/2000/svg" version="1.1" xmlns:xlink="http://www.w3.org/1999/xlink" xmlns:svgjs="http://svgjs.dev/svgjs" width="1500" height="1500" viewBox="0 0 1500 1500"><rect width="1500" height="1500" fill="#13472e"></rect><g transform="matrix(0.6666666666666666,0,0,0.6666666666666666,249.39393939393938,661.0261355530048)"><svg viewBox="0 0 396 71" data-background-color="#13472e" preserveAspectRatio="xMidYMid meet" height="268" width="1500" xmlns="http://www.w3.org/2000/svg" xmlns:xlink="http://www.w3.org/1999/xlink"><g id="tight-bounds" transform="matrix(1,0,0,1,0.2400000000000091,-0.14284864326498337)"><svg viewBox="0 0 395.52 71.28569728652994" height="71.28569728652994" width="395.52"><g><svg viewBox="0 0 577.3383331879845 104.05533386819485" height="71.28569728652994" width="395.52"><g><rect width="6.790027057408367" height="75.66976160458452" x="157.25336618971653" y="14.192786131805164" fill="#92b19f" opacity="1" stroke-width="0" stroke="transparent" fill-opacity="1" class="rect-qz-0" data-fill-palette-color="primary" rx="1%" id="qz-0" data-palette-color="#92b19f"></rect></g><g transform="matrix(1,0,0,1,181.8183331879845,14.38101936962751)"><svg viewBox="0 0 395.52 75.29329512893983" height="75.29329512893983" width="395.52"><g id="textblocktransform"><svg viewBox="0 0 395.52 75.29329512893983" height="75.29329512893983" width="395.52" id="textblock"><g><svg viewBox="0 0 395.52 75.29329512893983" height="75.29329512893983" width="395.52"><g transform="matrix(1,0,0,1,0,0)"><svg width="395.52" viewBox="2.25 -38.99 272.62 51.910000000000004" height="75.29329512893983" data-palette-color="#92b19f"><g class="wordmark-text-0" data-fill-palette-color="primary" id="text-0"><path d="M9.4-22.61L9.4-6.74Q9.4-3.42 10.13-2.16 10.86-0.9 12.5-0.9L12.5-0.9Q14.28-0.9 16.85-2.25L16.85-2.25 17.6-1.2Q13.57 1 11.01 1L11.01 1Q9.64 1 8.79 0.76 7.93 0.51 7.23-0.2 6.52-0.9 6.21-2.28 5.91-3.66 5.91-5.86L5.91-5.86 5.91-22.41 2.25-22.19 2.25-23.75Q4.17-24.17 5.91-24.29L5.91-24.29 5.91-27.76Q7.98-28.93 9.3-31.1L9.3-31.1 10.06-30.81Q9.64-29.83 9.52-28.6 9.4-27.37 9.4-24.44L9.4-24.44 17.8-24.44 17.8-23.58Q16.77-23.17 15.72-22.89 14.67-22.61 13.55-22.61L13.55-22.61 9.4-22.61ZM42.04-2.44L42.04-17.04Q42.04-19.09 41.65-20.4 41.26-21.7 40.59-22.45 39.91-23.19 39.02-23.49 38.13-23.78 37.13-23.78L37.13-23.78Q35.91-23.78 34.85-23.56 33.79-23.34 32.72-22.89 31.66-22.44 30.56-21.77 29.47-21.09 28.2-20.19L28.2-20.19 28.2-3.34Q28.2-2.56 28.32-2.09 28.44-1.61 28.83-1.29 29.22-0.98 29.93-0.73 30.64-0.49 31.78-0.2L31.78-0.2 31.59 0.39Q30.17 0.2 29.18 0.1 28.2 0 27.19 0 26.19 0 24.34 0.39L24.34 0.39 24.19 0.15Q24.68-0.56 24.68-2.44L24.68-2.44 24.68-31.69Q24.68-33.33 24.52-34.42 24.36-35.52 23.96-36.18 23.56-36.84 22.85-37.11 22.14-37.38 21.35-37.38 20.55-37.38 20.38-37.35L20.38-37.35 20.29-37.79Q24.27-38.99 27.68-38.99L27.68-38.99Q28.2-37.7 28.2-36.21L28.2-36.21 28.2-21.9Q29.88-23.05 31.26-23.79 32.64-24.54 33.85-24.98 35.06-25.42 36.14-25.59 37.23-25.76 38.35-25.76L38.35-25.76Q39.89-25.76 41.17-25.35 42.45-24.95 43.38-24.04 44.31-23.12 44.87-21.63 45.43-20.14 45.53-17.94L45.53-17.94 45.53-2.76Q45.53-2.17 45.81-1.78 46.09-1.39 46.54-1.12 46.99-0.85 47.58-0.67 48.17-0.49 48.8-0.29L48.8-0.29 48.58 0.29Q47.21 0 45.38 0 43.55 0 41.7 0.39L41.7 0.39 41.55 0.15Q42.04-0.56 42.04-2.44L42.04-2.44ZM56.68-2.44L56.68-18.09Q56.68-21.56 55.87-22.74 55.05-23.93 52.39-23.75L52.39-23.75 52.29-24.19Q56.32-25.39 59.69-25.39L59.69-25.39Q60.2-24.12 60.2-22.61L60.2-22.61 60.2-4.39Q60.2-2.47 61.1-1.54 62.01-0.61 64.3-0.2L64.3-0.2 64.11 0.39Q61.3 0 59.77 0 58.25 0 56.34 0.39L56.34 0.39 56.2 0.15Q56.68-0.56 56.68-2.44L56.68-2.44ZM54.19-34.45L54.19-34.45Q56.51-35.79 59.44-36.69L59.44-36.69Q59.44-34.67 60.1-32.69L60.1-32.69 59.79-32.25Q57.47-32.1 54.95-30.96L54.95-30.96Q54.34-32.64 54.19-34.45ZM69.99 12.6L69.99 12.6Q69.77 12.72 69.05 12.82 68.33 12.92 67.2 12.92 66.08 12.92 64.54 12.52 63.01 12.13 61.54 11.35L61.54 11.35Q62.47 9.69 64.59 8.2L64.59 8.2 64.93 8.45Q66.96 11.69 69.6 11.01L69.6 11.01Q70.28 9.79 70.54 7.13 70.79 4.47 70.79-2.2L70.79-2.2 70.79-18.09Q70.79-21.53 69.96-22.73 69.13-23.93 66.5-23.75L66.5-23.75 66.4-24.19Q70.43-25.39 73.8-25.39L73.8-25.39Q74.28-24.1 74.28-22.61L74.28-22.61 74.28 2.44Q74.28 4.71 73.72 6.7 73.16 8.69 72.36 9.89 71.55 11.08 70.95 11.73 70.35 12.38 69.99 12.6ZM68.3-34.45L68.3-34.45Q70.55-35.77 73.55-36.69L73.55-36.69Q73.55-34.74 74.19-32.69L74.19-32.69 73.89-32.25Q71.6-32.1 69.04-30.96L69.04-30.96Q68.45-32.69 68.3-34.45ZM97.6-5.69L97.6-5.69Q97.6-3.93 96.89-2.66 96.18-1.39 95-0.57 93.81 0.24 92.24 0.62 90.66 1 88.93 1L88.93 1Q84.73 1 81.04-0.76L81.04-0.76Q81.51-2.37 81.97-3.75 82.44-5.13 82.92-6.3L82.92-6.3 83.63-6.05Q83.41-4.98 83.41-3.99 83.41-3 83.49-2.2L83.49-2.2Q84.24-1.81 84.9-1.53 85.56-1.25 86.22-1.06 86.88-0.88 87.64-0.79 88.39-0.71 89.39-0.71L89.39-0.71Q90.88-0.71 91.86-0.9 92.84-1.1 93.39-1.57 93.94-2.05 94.16-2.84 94.37-3.64 94.37-4.81L94.37-4.81Q94.37-5.71 94.07-6.51 93.76-7.3 93.02-8.08 92.28-8.86 91.04-9.7 89.81-10.55 87.98-11.55L87.98-11.55Q85.02-13.31 83.51-15.05 82-16.8 82-18.8L82-18.8Q82-20.39 82.66-21.62 83.32-22.85 84.45-23.69 85.59-24.54 87.1-24.96 88.61-25.39 90.3-25.39L90.3-25.39Q91.15-25.39 92.09-25.27 93.03-25.15 93.91-24.91 94.79-24.68 95.56-24.35 96.33-24.02 96.89-23.61L96.89-23.61Q96.11-20.41 94.99-17.99L94.99-17.99 94.28-18.26Q94.33-18.97 94.35-20.01 94.37-21.04 94.37-22.46L94.37-22.46Q92.79-23.71 89.98-23.71L89.98-23.71Q88.59-23.71 87.62-23.54 86.66-23.36 86.07-22.95 85.49-22.53 85.23-21.81 84.98-21.09 84.98-20L84.98-20Q84.98-19.19 85.2-18.49 85.41-17.8 85.98-17.13 86.54-16.46 87.5-15.76 88.47-15.06 89.98-14.26L89.98-14.26Q92.35-12.96 93.83-11.99 95.3-11.01 96.14-10.07 96.99-9.13 97.29-8.11 97.6-7.08 97.6-5.69ZM105.97-2.44L105.97-18.09Q105.97-19.73 105.81-20.83 105.65-21.92 105.25-22.58 104.85-23.24 104.14-23.51 103.43-23.78 101.67-23.75L101.67-23.75 101.57-24.19Q105.55-25.39 108.97-25.39L108.97-25.39Q109.48-24.1 109.48-22.61L109.48-22.61 109.48-19.6 109.58-19.51Q110.61-20.92 111.55-22.02 112.49-23.12 113.46-23.85 114.44-24.58 115.51-24.96 116.59-25.34 117.91-25.34L117.91-25.34Q118.74-25.34 119.74-25.2L119.74-25.2 118.32-19.24 117.42-19.51Q117.42-19.87 117.37-20.51 117.32-21.14 117.24-21.77 117.15-22.39 117.02-22.84 116.88-23.29 116.71-23.29L116.71-23.29Q116-23.29 115.28-22.99 114.56-22.68 113.71-22 112.85-21.31 111.83-20.21 110.8-19.12 109.48-17.55L109.48-17.55 109.48-3.34Q109.48-2.56 109.61-2.09 109.73-1.61 110.12-1.29 110.51-0.98 111.22-0.73 111.93-0.49 113.07-0.2L113.07-0.2 112.88 0.39Q111.46 0.2 110.47 0.1 109.48 0 108.87 0L108.87 0Q107.48 0 105.63 0.39L105.63 0.39 105.48 0.15Q105.97-0.56 105.97-2.44L105.97-2.44ZM126.38-2.44L126.38-18.09Q126.38-21.56 125.56-22.74 124.74-23.93 122.08-23.75L122.08-23.75 121.98-24.19Q126.01-25.39 129.38-25.39L129.38-25.39Q129.89-24.12 129.89-22.61L129.89-22.61 129.89-4.39Q129.89-2.47 130.8-1.54 131.7-0.61 133.99-0.2L133.99-0.2 133.8 0.39Q130.99 0 129.46 0 127.94 0 126.03 0.39L126.03 0.39 125.89 0.15Q126.38-0.56 126.38-2.44L126.38-2.44ZM123.89-34.45L123.89-34.45Q126.21-35.79 129.14-36.69L129.14-36.69Q129.14-34.67 129.79-32.69L129.79-32.69 129.48-32.25Q127.16-32.1 124.64-30.96L124.64-30.96Q124.03-32.64 123.89-34.45ZM137.73-11.89L137.73-11.89Q137.73-14.48 138.58-16.91 139.44-19.34 141.02-21.23 142.61-23.12 144.87-24.26 147.13-25.39 149.93-25.39L149.93-25.39Q151.69-25.39 153.25-24.79 154.82-24.19 155.98-22.94 157.14-21.68 157.81-19.71 158.48-17.75 158.48-15.04L158.48-15.04 157.53-14.16 141.58-14.16Q141.54-13.75 141.54-13.35 141.54-12.96 141.54-12.57L141.54-12.57Q141.54-9.91 142.16-7.74 142.78-5.57 143.84-4.02 144.9-2.47 146.34-1.61 147.79-0.76 149.4-0.76L149.4-0.76Q150.42-0.76 151.48-0.92 152.55-1.07 153.56-1.42 154.57-1.76 155.52-2.29 156.48-2.83 157.28-3.59L157.28-3.59 158.28-2.54Q156.35-0.63 154.08 0.18 151.81 1 148.84 1L148.84 1Q146.49 1 144.45 0.1 142.41-0.81 140.92-2.49 139.44-4.17 138.58-6.56 137.73-8.94 137.73-11.89ZM149.4-23.71L149.4-23.71Q145.61-23.71 143.85-21.74 142.1-19.78 141.73-16.09L141.73-16.09 155.33-16.09Q155.13-20.09 153.53-21.9 151.94-23.71 149.4-23.71ZM170.39-22.61L170.39-6.74Q170.39-3.42 171.12-2.16 171.86-0.9 173.49-0.9L173.49-0.9Q175.27-0.9 177.84-2.25L177.84-2.25 178.59-1.2Q174.56 1 172 1L172 1Q170.63 1 169.78 0.76 168.93 0.51 168.22-0.2 167.51-0.9 167.2-2.28 166.9-3.66 166.9-5.86L166.9-5.86 166.9-22.41 163.24-22.19 163.24-23.75Q165.17-24.17 166.9-24.29L166.9-24.29 166.9-27.76Q168.97-28.93 170.29-31.1L170.29-31.1 171.05-30.81Q170.63-29.83 170.51-28.6 170.39-27.37 170.39-24.44L170.39-24.44 178.79-24.44 178.79-23.58Q177.76-23.17 176.71-22.89 175.66-22.61 174.54-22.61L174.54-22.61 170.39-22.61ZM204.79-24.66L193.68 1.25 191.97 0.76 184.13-19.8Q183.82-20.73 183.47-21.39 183.13-22.05 182.57-22.44 182.01-22.83 181.12-22.92 180.23-23.02 178.83-22.85L178.83-22.85 178.59-23.34Q182.69-25.39 185.94-25.39L185.94-25.39 192.38-8.15Q193.21-5.35 193.53-3.66L193.53-3.66 193.92-3.66Q194.02-3.98 194.29-4.87 194.56-5.76 194.78-6.38 195-7.01 195.24-7.59L195.24-7.59 201.64-22.34Q202.1-23.46 200.27-23.78L200.27-23.78Q199.27-23.93 197.73-23.8L197.73-23.8 197.58-24.39Q200.69-25.05 204.47-25.15L204.47-25.15 204.79-24.66ZM208.37-11.89L208.37-11.89Q208.37-14.48 209.23-16.91 210.08-19.34 211.67-21.23 213.26-23.12 215.51-24.26 217.77-25.39 220.58-25.39L220.58-25.39Q222.34-25.39 223.9-24.79 225.46-24.19 226.62-22.94 227.78-21.68 228.45-19.71 229.13-17.75 229.13-15.04L229.13-15.04 228.17-14.16 212.23-14.16Q212.18-13.75 212.18-13.35 212.18-12.96 212.18-12.57L212.18-12.57Q212.18-9.91 212.8-7.74 213.43-5.57 214.49-4.02 215.55-2.47 216.99-1.61 218.43-0.76 220.04-0.76L220.04-0.76Q221.07-0.76 222.13-0.92 223.19-1.07 224.21-1.42 225.22-1.76 226.17-2.29 227.12-2.83 227.93-3.59L227.93-3.59 228.93-2.54Q227-0.63 224.73 0.18 222.46 1 219.48 1L219.48 1Q217.14 1 215.1 0.1 213.06-0.81 211.57-2.49 210.08-4.17 209.23-6.56 208.37-8.94 208.37-11.89ZM220.04-23.71L220.04-23.71Q216.26-23.71 214.5-21.74 212.74-19.78 212.38-16.09L212.38-16.09 225.98-16.09Q225.78-20.09 224.18-21.9 222.58-23.71 220.04-23.71ZM240.79-36.21L240.79-4.39Q240.79-2.47 241.7-1.54 242.6-0.61 244.89-0.2L244.89-0.2 244.7 0.39Q241.89 0 240.37 0 238.84 0 236.94 0.39L236.94 0.39 236.79 0.15Q237.28-0.56 237.28-2.44L237.28-2.44 237.28-31.69Q237.28-35.16 236.46-36.34 235.64-37.52 232.98-37.35L232.98-37.35 232.88-37.79Q236.91-38.99 240.28-38.99L240.28-38.99Q240.79-37.72 240.79-36.21L240.79-36.21ZM267.28-25L267.28-31.69Q267.28-33.35 267.13-34.33 266.99-35.3 266.53-36.04 266.08-36.77 265.23-37.06 264.37-37.35 262.98-37.35L262.98-37.35 262.89-37.79Q266.91-38.99 270.28-38.99L270.28-38.99Q270.77-37.7 270.77-36.21L270.77-36.21 270.77-4.39Q270.77-2.47 271.67-1.54 272.58-0.61 274.87-0.2L274.87-0.2 274.68 0.39Q271.87 0 270.18 0L270.18 0Q268.87 0 266.91 0.39L266.91 0.39 266.77 0.15Q267.28-0.56 267.28-2.44L267.28-2.44 267.28-2.66Q263.69 1 259.78 1L259.78 1Q257.71 1 255.79 0.12 253.88-0.76 252.39-2.31 250.9-3.86 250.01-6.19 249.12-8.52 249.12-11.25L249.12-11.25Q249.12-17.8 252.57-21.59 256.02-25.39 262.57-25.39L262.57-25.39Q264.62-25.39 267.28-25L267.28-25ZM267.28-4.44L267.28-22.29Q264.5-23.56 260.79-23.56L260.79-23.56Q258.88-23.56 257.49-23.03 256.1-22.51 255.23-21.61 254.36-20.7 253.85-19.27 253.34-17.85 253.16-16.26 252.97-14.67 252.97-12.55L252.97-12.55Q252.97-6.96 255.05-4.03 257.12-1.1 260.42-1.1L260.42-1.1Q264.01-1.1 267.28-4.44L267.28-4.44Z" fill="#92b19f" data-fill-palette-color="primary"></path></g></svg></g></svg></g></svg></g></svg></g><g><svg viewBox="0 0 139.47842624885692 104.05533386819485" height="104.05533386819485" width="139.47842624885692"><g><svg xmlns:dc="http://purl.org/dc/elements/1.1/" xmlns:cc="http://creativecommons.org/ns#" xmlns:rdf="http://www.w3.org/1999/02/22-rdf-syntax-ns#" xmlns:svg="http://www.w3.org/2000/svg" xmlns="http://www.w3.org/2000/svg" xmlns:sodipodi="http://sodipodi.sourceforge.net/DTD/sodipodi-0.dtd" xmlns:inkscape="http://www.inkscape.org/namespaces/inkscape" preserveAspectRatio="xMidYMid" viewBox="0 0 63 47" version="1.1" x="0" y="0" height="104.05533386819485" width="139.47842624885692" class="icon-icon-0" data-fill-palette-color="accent" id="icon-0"><path d="M9.5 0C4.253 0 0 4.253 0 9.5L0 37.5C0 42.747 4.253 47 9.5 47L53.5 47C58.747 47 63 42.747 63 37.5L63 9.5C63 4.253 58.747 0 53.5 0L9.5 0zM9.5 3L53.5 3C57.09 3 60 5.91 60 9.5L60 14 3 14 3 9.5C3 5.91 5.91 3 9.5 3zM12.75 6C11.187 6 9.906 7.281 9.906 8.844 9.906 10.407 11.187 11.656 12.75 11.656 14.313 11.656 15.594 10.407 15.594 8.844 15.594 7.281 14.313 6 12.75 6zM22.938 6C21.375 6 20.125 7.281 20.125 8.844 20.125 10.407 21.375 11.656 22.938 11.656 24.5 11.656 25.781 10.407 25.781 8.844 25.781 7.281 24.5 6 22.938 6zM32 6C30.437 6 29.156 7.281 29.156 8.844 29.156 10.407 30.437 11.656 32 11.656 33.562 11.656 34.813 10.407 34.813 8.844 34.813 7.281 33.562 6 32 6zM3 17L60 17 60 37.5C60 41.09 57.09 44 53.5 44L9.5 44C5.91 44 3 41.09 3 37.5L3 17zM17.969 23C17.523 23.05 17.122 23.294 16.875 23.688L8.656 36.688C8.214 37.388 8.424 38.34 9.125 38.781 9.373 38.939 9.632 39 9.906 39 10.403 39 10.902 38.764 11.188 38.313L17.344 28.563 18.625 35.781C18.707 36.236 18.997 36.628 19.406 36.844 19.813 37.059 20.297 37.063 20.719 36.875L25.625 34.688 31.438 38.719C31.787 38.964 32.21 39.064 32.625 38.969 33.04 38.87 33.389 38.594 33.594 38.219L39.719 26.938 51.594 38.563C52.184 39.141 53.139 39.154 53.719 38.563 54.299 37.971 54.312 37.017 53.719 36.438L40.406 23.406C40.07 23.078 39.592 22.936 39.125 23 38.66 23.07 38.256 23.336 38.031 23.75L31.75 35.313 26.625 31.75C26.192 31.449 25.637 31.381 25.156 31.594L21.25 33.375 19.594 24.219C19.485 23.609 19.013 23.119 18.406 23 18.254 22.971 18.117 22.983 17.969 23z" fill="#d09632" fill-rule="evenodd" data-fill-palette-color="accent"></path></svg></g></svg></g></svg></g><defs></defs></svg><rect width="395.52" height="71.28569728652994" fill="none" stroke="none" visibility="hidden"></rect></g></svg></g></svg>